<svg id="svg"
  xmlns="http://www.w3.org/2000/svg"
  xmlns:xlink="http://www.w3.org/1999/xlink" width="400" height="446.51162790697674" viewBox="0, 0, 400,446.51162790697674">
  <g id="svgg">
    <path id="path0" d="M323.598 28.232 C 322.209 29.248,322.084 30.454,321.971 43.930 L 321.848 58.527 308.212 58.625 C 291.597 58.744,292.248 58.385,292.248 67.417 C 292.248 77.002,291.797 76.744,308.588 76.746 L 322.093 76.747 322.093 110.348 C 322.093 149.907,321.222 146.512,331.370 146.512 C 341.991 146.512,341.085 149.896,341.085 110.210 L 341.085 76.744 354.919 76.744 C 371.825 76.744,371.318 77.037,371.318 67.282 C 371.318 58.539,372.030 58.913,355.140 58.793 L 341.085 58.693 341.085 44.195 C 341.085 26.542,341.410 27.132,331.676 27.132 C 327.222 27.132,324.617 27.487,323.598 28.232 M103.001 60.059 C 97.508 62.080,93.864 65.382,68.889 90.965 C 48.407 111.945,43.206 117.702,41.389 121.404 L 39.147 125.969 38.941 256.589 C 38.737 385.645,38.753 387.270,40.296 392.248 C 42.264 398.595,46.136 403.873,51.360 407.331 C 59.544 412.748,50.931 412.448,191.924 412.221 L 318.992 412.016 323.816 409.787 C 328.953 407.415,335.171 401.589,337.621 396.854 C 341.140 390.053,341.066 392.641,341.076 274.940 L 341.085 163.447 338.819 161.181 C 335.954 158.315,330.814 158.012,327.624 160.521 L 325.581 162.128 325.564 274.281 C 325.546 397.671,325.838 389.845,321.091 394.066 C 316.980 397.721,321.260 397.604,190.232 397.640 C 61.268 397.676,64.304 397.753,59.406 394.338 C 53.909 390.506,54.300 400.549,54.281 262.597 L 54.264 138.760 73.837 138.752 C 96.170 138.743,98.136 138.298,104.663 131.771 C 111.037 125.398,111.209 124.532,111.475 97.481 L 111.711 73.643 194.510 73.643 C 277.103 73.643,277.315 73.639,279.353 72.037 C 282.190 69.805,282.334 63.168,279.601 60.600 L 277.807 58.915 191.811 58.969 C 122.109 59.014,105.281 59.220,103.001 60.059 M96.748 102.697 L 96.512 119.348 94.364 121.496 L 92.216 123.643 75.565 123.880 C 66.408 124.010,58.915 123.838,58.915 123.498 C 58.915 122.682,95.539 86.047,96.354 86.047 C 96.701 86.047,96.878 93.539,96.748 102.697 M259.690 107.471 C 249.244 110.183,231.336 114.817,219.893 117.768 C 208.450 120.719,198.857 123.364,198.575 123.646 C 198.293 123.927,197.888 133.635,197.674 145.218 L 197.287 166.279 140.169 166.478 L 83.050 166.677 81.448 168.714 C 79.320 171.419,79.424 174.068,81.748 176.392 L 83.650 178.295 140.662 178.295 L 197.674 178.295 197.674 197.674 C 197.674 208.333,197.544 217.054,197.384 217.054 C 197.225 217.054,195.611 216.531,193.798 215.891 C 189.260 214.290,183.289 214.436,177.485 216.290 C 172.813 217.783,170.631 217.850,127.965 217.810 L 83.333 217.768 81.589 219.780 C 79.625 222.045,79.467 223.129,80.706 225.847 C 82.318 229.387,83.167 229.457,124.150 229.457 C 160.796 229.457,162.927 229.533,162.419 230.814 C 158.535 240.626,160.838 249.031,168.813 254.149 C 184.413 264.159,205.494 253.172,207.499 233.987 L 207.973 229.457 223.231 229.457 L 238.489 229.457 240.369 231.498 C 247.081 238.787,260.956 239.132,270.537 232.249 L 274.422 229.457 286.719 229.457 C 301.147 229.457,303.101 228.725,303.101 223.320 C 303.101 218.576,301.823 217.996,290.698 217.689 C 282.557 217.464,281.065 217.237,281.366 216.269 C 281.563 215.635,281.852 206.831,282.009 196.705 L 282.294 178.295 290.655 178.295 C 300.797 178.295,303.101 177.144,303.101 172.081 C 303.101 167.420,301.405 166.667,290.922 166.667 L 282.188 166.667 281.986 135.559 C 281.789 105.401,281.736 104.423,280.233 103.496 C 278.927 102.690,275.689 103.317,259.690 107.471 M272.093 149.225 L 272.093 166.667 239.922 166.667 L 207.752 166.667 207.752 157.340 C 207.752 149.893,207.979 147.926,208.880 147.581 C 211.071 146.740,269.399 131.898,270.736 131.841 C 271.990 131.787,272.093 133.108,272.093 149.225 M272.093 187.680 C 272.093 196.034,271.954 197.012,270.830 196.581 C 255.977 190.881,238.056 200.135,235.687 214.728 L 235.246 217.442 221.499 217.661 L 207.752 217.881 207.752 198.088 L 207.752 178.295 239.922 178.295 L 272.093 178.295 272.093 187.680 M125.833 261.581 C 122.051 262.764,117.932 265.187,115.914 267.417 C 114.572 268.900,113.586 268.992,99.069 268.992 C 82.061 268.992,79.845 269.653,79.845 274.728 C 79.845 279.844,82.468 280.983,94.892 281.259 L 106.202 281.510 106.202 300.832 L 106.202 320.155 95.773 320.155 C 81.948 320.155,77.996 322.347,80.579 328.582 C 81.978 331.960,84.264 332.558,95.773 332.558 L 106.202 332.558 106.202 351.494 L 106.202 370.430 108.244 372.037 C 110.890 374.118,112.055 374.062,114.376 371.741 L 116.279 369.838 116.279 351.198 L 116.279 332.558 207.647 332.558 C 311.460 332.558,303.101 333.101,303.101 326.357 C 303.101 319.612,311.460 320.155,207.647 320.155 L 116.279 320.155 116.279 310.770 C 116.279 302.127,116.386 301.430,117.636 301.964 C 132.963 308.512,150.404 299.817,153.842 283.915 L 154.387 281.395 225.527 281.395 C 306.805 281.395,303.101 281.725,303.101 274.500 C 303.101 268.585,308.880 268.992,224.973 268.992 L 150.238 268.992 146.711 265.888 C 141.084 260.934,133.141 259.296,125.833 261.581 " stroke="none" fill="#ffffff" fill-rule="evenodd"></path>
  </g>
</svg>